<?xml version="1.0" standalone="no"?>
<svg xmlns="http://www.w3.org/2000/svg" viewBox="0 0 83.2 29" width="83.2" height="29"><path fill="#ab47bc" fill-rule="nonzero" d="M5.16 1.70L4.27 1.63Q4.22 1.10 4.22 0.91Q4.22 0.72 4.30 0.29L4.30 0.29Q4.94 0.31 6.25 0.31Q7.56 0.31 8.16 0.29L8.16 0.29Q8.23 0.65 8.23 0.83Q8.23 1.01 8.18 1.63L8.18 1.63L7.34 1.70Q7.18 3.98 7.18 9.60L7.18 9.60L7.18 13.27Q7.18 17.14 6.36 18.59Q5.54 20.04 3.36 20.04L3.36 20.04Q2.52 20.04 1.58 19.73Q0.65 19.42 0 18.94L0 18.94Q0.10 18.36 0.34 17.88Q0.58 17.40 0.77 17.21L0.77 17.21L0.96 17.04Q1.87 18.26 3.19 18.26Q4.51 18.26 4.94 17.12Q5.38 15.98 5.38 12.82L5.38 12.82L5.38 8.76Q5.38 3.82 5.16 1.70L5.16 1.70ZM13.25 1.75Q13.18 1.46 13.18 1.01Q13.18 0.55 13.20 0.41L13.20 0.41Q15.31 0.14 16.34 0.14Q17.38 0.14 18.10 0.38L18.10 0.38Q18.67 4.90 22.10 14.33L22.10 14.33L22.99 14.40Q23.04 14.93 23.04 15.13Q23.04 15.34 22.97 15.74L22.97 15.74Q22.30 15.72 20.88 15.72Q19.46 15.72 18.91 15.74L18.91 15.74Q18.84 15.38 18.84 15.06Q18.84 14.74 18.89 14.40L18.89 14.40L19.73 14.33Q19.61 13.75 19.34 12.66Q19.08 11.57 19.06 11.45L19.06 11.45Q17.69 11.38 16.09 11.38Q14.50 11.38 13.10 11.47L13.10 11.47L12.43 14.33L13.34 14.40Q13.39 14.93 13.39 15.13Q13.39 15.34 13.32 15.74L13.32 15.74Q12.74 15.72 11.44 15.72Q10.13 15.72 9.60 15.74L9.60 15.74Q9.53 15.38 9.53 15.06Q9.53 14.74 9.58 14.40L9.58 14.40L10.42 14.33Q13.30 6.43 14.21 1.82L14.21 1.82L13.25 1.75ZM13.54 9.79L13.54 9.79Q14.35 9.82 15.98 9.82Q17.62 9.82 18.62 9.74L18.62 9.74Q17.50 5.47 16.25 1.85L16.25 1.85L16.10 1.85Q14.69 5.28 13.54 9.79ZM24.34 7.87L24.34 7.87Q24.34 0 30.23 0Q36.12 0 36.12 7.87L36.12 7.87Q36.12 9.31 36.01 10.39Q35.90 11.47 35.53 12.60Q35.16 13.73 34.54 14.45Q33.91 15.17 32.82 15.62Q31.73 16.08 30.23 16.08Q28.73 16.08 27.64 15.62Q26.54 15.17 25.92 14.45Q25.30 13.73 24.92 12.60Q24.55 11.47 24.44 10.39Q24.34 9.31 24.34 7.87ZM28.20 13.78L28.20 13.78Q29.02 14.30 30.23 14.30Q31.44 14.30 32.27 13.78Q33.10 13.25 33.50 12.26L33.50 12.26Q34.22 10.56 34.22 7.90L34.22 7.90Q34.22 1.42 30.23 1.42Q26.23 1.42 26.23 7.90L26.23 7.90Q26.23 12.53 28.20 13.78Z" transform="translate(0, 4.48)"></path><line x1="45.12" y1="2%" x2="45.12" y2="98%" stroke="#ab47bc" stroke-linecap="round"></line><g fill="#d84315" color="#d84315" transform="translate(54.12 0) scale(0.5576924)"><svg width="52.0" height="52.0" x="0.0" y="0.0" viewBox="0 0 52 52"><path fill="currentColor" fill-rule="evenodd" d="M48.231 30.94l-.26 1.04c0 .173-.087.173-.087.173v-.173c.867-7.973-10.4-12.566-22.966-12.566-2.514 0-5.2.173-7.714.606-3.986.607-7.02 1.56-9.186 2.6.26 2.774 2.773 3.12 4.333 3.12h.52c2.253-.086 5.027-.52 6.413-.693.174 0 .434-.087.52-.087 1.56-.173 3.207-.346 4.767-.346 7.02 0 14.04 1.905 17.767 6.153 3.639 4.16 2.426 9.013-2.514 13.26-4.506 3.813-10.314 4.592-13.347 4.767h-.693c-3.293 0-6.153-.954-6.673-1.214-4.853-1.906-4.16-5.113-1.473-6.846 2.166-1.387 4.853-1.994 7.366-1.994 4.506 0 8.494 1.907 8.06 4.42-.26 1.734-2.34 2.687-3.987 2.687-.433 0-.867-.087-1.213-.261l-.087-.086c-.086-.173-.173-.26-.606-.433a5.446 5.446 0 0 0-1.647-.26c-1.56 0-3.206.607-3.64 1.473-.26.606.26 1.04.954 1.3.78.26 1.646.347 2.426.347.954 0 1.734-.087 2.167-.174 5.027-.867 9.446-3.206 11.267-5.286 1.473-1.733 1.126-4.16-2.947-6.067-3.467-1.733-7.887-2.08-11.18-2.08-2.167 0-3.813.174-4.42.26-.433.087-3.207.434-6.24.434h-.693c-1.04 0-1.994-.087-3.034-.261-2.773-.346-5.98-2.686-6.933-6.067a12.367 12.367 0 0 1-.173-.952v-.52c-.087-2.774-.26-6.674 1.646-9.36 3.814-5.287 11.614-7.627 19.587-7.627 11.093 0 22.62 4.68 24.18 12.827.086 0 .693 3.726-.26 7.886M23.791 3.207a22.726 22.726 0 0 1 20.02 8.493c-5.113-3.033-11.613-4.853-18.633-4.68-6.327.087-12.134 1.734-16.987 4.42 3.813-4.506 9.273-7.626 15.6-8.233m28.08 20.28c-.52-5.027-2.427-9.793-5.633-13.78A25.978 25.978 0 0 0 25.958 0c-.867 0-1.647 0-2.514.087-6.846.693-13.086 3.987-17.506 9.36C1.518 14.82-.562 21.58.13 28.427 1.344 41.947 12.698 52 25.958 52c.866 0 1.646 0 2.513-.086 6.933-.695 13.173-3.987 17.593-9.361a26.535 26.535 0 0 0 5.807-19.066"></path></svg></g></svg>